<mxfile host="app.diagrams.net" modified="2021-08-30T03:29:39.489Z" agent="5.0 (Windows NT 10.0; Win64; x64) AppleWebKit/537.36 (KHTML, like Gecko) Chrome/92.0.4515.159 Safari/537.36" etag="kbPLeJcW2kun8sEDMWGY" version="15.0.3" type="github">
  <diagram id="C5RBs43oDa-KdzZeNtuy" name="Page-1">
    <mxGraphModel dx="1182" dy="764" grid="1" gridSize="10" guides="1" tooltips="1" connect="1" arrows="1" fold="1" page="1" pageScale="1" pageWidth="827" pageHeight="1169" math="0" shadow="0">
      <root>
        <mxCell id="WIyWlLk6GJQsqaUBKTNV-0" />
        <mxCell id="WIyWlLk6GJQsqaUBKTNV-1" parent="WIyWlLk6GJQsqaUBKTNV-0" />
        <mxCell id="bgo5e_Lx12IVAWtBBwC9-2" value="" style="edgeStyle=orthogonalEdgeStyle;rounded=0;orthogonalLoop=1;jettySize=auto;html=1;" edge="1" parent="WIyWlLk6GJQsqaUBKTNV-1" source="WIyWlLk6GJQsqaUBKTNV-3" target="bgo5e_Lx12IVAWtBBwC9-1">
          <mxGeometry relative="1" as="geometry" />
        </mxCell>
        <mxCell id="WIyWlLk6GJQsqaUBKTNV-3" value="Run Python Script" style="rounded=1;whiteSpace=wrap;html=1;fontSize=12;glass=0;strokeWidth=1;shadow=0;" parent="WIyWlLk6GJQsqaUBKTNV-1" vertex="1">
          <mxGeometry x="160" y="80" width="120" height="40" as="geometry" />
        </mxCell>
        <mxCell id="bgo5e_Lx12IVAWtBBwC9-0" value="&lt;font style=&quot;font-size: 36px&quot;&gt;&lt;b&gt;CSD Automation&lt;/b&gt;&lt;/font&gt;&lt;br&gt;" style="text;html=1;align=center;verticalAlign=middle;resizable=0;points=[];autosize=1;strokeColor=none;" vertex="1" parent="WIyWlLk6GJQsqaUBKTNV-1">
          <mxGeometry x="120" y="15" width="300" height="30" as="geometry" />
        </mxCell>
        <mxCell id="bgo5e_Lx12IVAWtBBwC9-10" value="" style="edgeStyle=orthogonalEdgeStyle;rounded=0;orthogonalLoop=1;jettySize=auto;html=1;" edge="1" parent="WIyWlLk6GJQsqaUBKTNV-1" source="bgo5e_Lx12IVAWtBBwC9-1" target="bgo5e_Lx12IVAWtBBwC9-6">
          <mxGeometry relative="1" as="geometry" />
        </mxCell>
        <mxCell id="bgo5e_Lx12IVAWtBBwC9-1" value="Open GUI" style="rounded=1;whiteSpace=wrap;html=1;fontSize=12;glass=0;strokeWidth=1;shadow=0;" vertex="1" parent="WIyWlLk6GJQsqaUBKTNV-1">
          <mxGeometry x="160" y="170" width="120" height="40" as="geometry" />
        </mxCell>
        <mxCell id="bgo5e_Lx12IVAWtBBwC9-14" value="" style="edgeStyle=orthogonalEdgeStyle;rounded=0;orthogonalLoop=1;jettySize=auto;html=1;" edge="1" parent="WIyWlLk6GJQsqaUBKTNV-1" source="bgo5e_Lx12IVAWtBBwC9-3" target="bgo5e_Lx12IVAWtBBwC9-13">
          <mxGeometry relative="1" as="geometry">
            <Array as="points">
              <mxPoint x="430" y="360" />
            </Array>
          </mxGeometry>
        </mxCell>
        <mxCell id="bgo5e_Lx12IVAWtBBwC9-18" value="" style="edgeStyle=orthogonalEdgeStyle;rounded=0;orthogonalLoop=1;jettySize=auto;html=1;" edge="1" parent="WIyWlLk6GJQsqaUBKTNV-1" source="bgo5e_Lx12IVAWtBBwC9-3" target="bgo5e_Lx12IVAWtBBwC9-17">
          <mxGeometry relative="1" as="geometry" />
        </mxCell>
        <mxCell id="bgo5e_Lx12IVAWtBBwC9-3" value="" style="rounded=0;whiteSpace=wrap;html=1;" vertex="1" parent="WIyWlLk6GJQsqaUBKTNV-1">
          <mxGeometry x="380" y="120" width="120" height="160" as="geometry" />
        </mxCell>
        <mxCell id="bgo5e_Lx12IVAWtBBwC9-4" value="Name" style="text;html=1;align=center;verticalAlign=middle;resizable=0;points=[];autosize=1;strokeColor=none;" vertex="1" parent="WIyWlLk6GJQsqaUBKTNV-1">
          <mxGeometry x="380" y="140" width="50" height="20" as="geometry" />
        </mxCell>
        <mxCell id="bgo5e_Lx12IVAWtBBwC9-5" value="Site" style="text;html=1;align=center;verticalAlign=middle;resizable=0;points=[];autosize=1;strokeColor=none;" vertex="1" parent="WIyWlLk6GJQsqaUBKTNV-1">
          <mxGeometry x="380" y="160" width="40" height="20" as="geometry" />
        </mxCell>
        <mxCell id="bgo5e_Lx12IVAWtBBwC9-6" value="System" style="text;html=1;align=center;verticalAlign=middle;resizable=0;points=[];autosize=1;strokeColor=none;" vertex="1" parent="WIyWlLk6GJQsqaUBKTNV-1">
          <mxGeometry x="380" y="180" width="60" height="20" as="geometry" />
        </mxCell>
        <mxCell id="bgo5e_Lx12IVAWtBBwC9-7" value="Document" style="text;html=1;align=center;verticalAlign=middle;resizable=0;points=[];autosize=1;strokeColor=none;" vertex="1" parent="WIyWlLk6GJQsqaUBKTNV-1">
          <mxGeometry x="380" y="200" width="70" height="20" as="geometry" />
        </mxCell>
        <mxCell id="bgo5e_Lx12IVAWtBBwC9-8" value="Before CSD" style="text;html=1;align=center;verticalAlign=middle;resizable=0;points=[];autosize=1;strokeColor=none;" vertex="1" parent="WIyWlLk6GJQsqaUBKTNV-1">
          <mxGeometry x="380" y="230" width="80" height="20" as="geometry" />
        </mxCell>
        <mxCell id="bgo5e_Lx12IVAWtBBwC9-9" value="After CSD" style="text;html=1;align=center;verticalAlign=middle;resizable=0;points=[];autosize=1;strokeColor=none;" vertex="1" parent="WIyWlLk6GJQsqaUBKTNV-1">
          <mxGeometry x="380" y="250" width="70" height="20" as="geometry" />
        </mxCell>
        <mxCell id="bgo5e_Lx12IVAWtBBwC9-11" value="Input Fields" style="text;html=1;align=center;verticalAlign=middle;resizable=0;points=[];autosize=1;strokeColor=none;" vertex="1" parent="WIyWlLk6GJQsqaUBKTNV-1">
          <mxGeometry x="290" y="160" width="80" height="20" as="geometry" />
        </mxCell>
        <mxCell id="bgo5e_Lx12IVAWtBBwC9-16" value="" style="edgeStyle=orthogonalEdgeStyle;rounded=0;orthogonalLoop=1;jettySize=auto;html=1;" edge="1" parent="WIyWlLk6GJQsqaUBKTNV-1" source="bgo5e_Lx12IVAWtBBwC9-13" target="bgo5e_Lx12IVAWtBBwC9-15">
          <mxGeometry relative="1" as="geometry" />
        </mxCell>
        <mxCell id="bgo5e_Lx12IVAWtBBwC9-25" value="" style="edgeStyle=orthogonalEdgeStyle;rounded=0;orthogonalLoop=1;jettySize=auto;html=1;" edge="1" parent="WIyWlLk6GJQsqaUBKTNV-1" source="bgo5e_Lx12IVAWtBBwC9-13" target="bgo5e_Lx12IVAWtBBwC9-24">
          <mxGeometry relative="1" as="geometry" />
        </mxCell>
        <mxCell id="bgo5e_Lx12IVAWtBBwC9-13" value="CSD Parser" style="rounded=1;whiteSpace=wrap;html=1;" vertex="1" parent="WIyWlLk6GJQsqaUBKTNV-1">
          <mxGeometry x="160" y="330" width="120" height="60" as="geometry" />
        </mxCell>
        <mxCell id="bgo5e_Lx12IVAWtBBwC9-29" value="" style="edgeStyle=orthogonalEdgeStyle;rounded=0;orthogonalLoop=1;jettySize=auto;html=1;entryX=1;entryY=0.5;entryDx=0;entryDy=0;" edge="1" parent="WIyWlLk6GJQsqaUBKTNV-1" source="bgo5e_Lx12IVAWtBBwC9-15" target="bgo5e_Lx12IVAWtBBwC9-26">
          <mxGeometry relative="1" as="geometry">
            <mxPoint x="320" y="620" as="targetPoint" />
          </mxGeometry>
        </mxCell>
        <mxCell id="bgo5e_Lx12IVAWtBBwC9-15" value="Assign Variables" style="rounded=1;whiteSpace=wrap;html=1;" vertex="1" parent="WIyWlLk6GJQsqaUBKTNV-1">
          <mxGeometry x="260" y="480" width="120" height="60" as="geometry" />
        </mxCell>
        <mxCell id="bgo5e_Lx12IVAWtBBwC9-17" value="Save Befores CSD to text file" style="whiteSpace=wrap;html=1;rounded=0;" vertex="1" parent="WIyWlLk6GJQsqaUBKTNV-1">
          <mxGeometry x="580" y="110" width="120" height="60" as="geometry" />
        </mxCell>
        <mxCell id="bgo5e_Lx12IVAWtBBwC9-19" value="Save Afters CSD to text file" style="whiteSpace=wrap;html=1;rounded=0;" vertex="1" parent="WIyWlLk6GJQsqaUBKTNV-1">
          <mxGeometry x="580" y="190" width="120" height="60" as="geometry" />
        </mxCell>
        <mxCell id="bgo5e_Lx12IVAWtBBwC9-20" value="" style="endArrow=classic;html=1;entryX=0;entryY=0.5;entryDx=0;entryDy=0;" edge="1" parent="WIyWlLk6GJQsqaUBKTNV-1" target="bgo5e_Lx12IVAWtBBwC9-19">
          <mxGeometry width="50" height="50" relative="1" as="geometry">
            <mxPoint x="499" y="220" as="sourcePoint" />
            <mxPoint x="440" y="340" as="targetPoint" />
          </mxGeometry>
        </mxCell>
        <mxCell id="bgo5e_Lx12IVAWtBBwC9-21" value="Save inputs to a spread sheet" style="whiteSpace=wrap;html=1;rounded=0;" vertex="1" parent="WIyWlLk6GJQsqaUBKTNV-1">
          <mxGeometry x="580" y="270" width="120" height="60" as="geometry" />
        </mxCell>
        <mxCell id="bgo5e_Lx12IVAWtBBwC9-23" value="" style="edgeStyle=orthogonalEdgeStyle;rounded=0;orthogonalLoop=1;jettySize=auto;html=1;entryX=0;entryY=0.5;entryDx=0;entryDy=0;exitX=1;exitY=0.75;exitDx=0;exitDy=0;" edge="1" parent="WIyWlLk6GJQsqaUBKTNV-1" source="bgo5e_Lx12IVAWtBBwC9-3" target="bgo5e_Lx12IVAWtBBwC9-21">
          <mxGeometry relative="1" as="geometry">
            <mxPoint x="470" y="390" as="sourcePoint" />
            <mxPoint x="550" y="330" as="targetPoint" />
          </mxGeometry>
        </mxCell>
        <mxCell id="bgo5e_Lx12IVAWtBBwC9-27" value="" style="edgeStyle=orthogonalEdgeStyle;rounded=0;orthogonalLoop=1;jettySize=auto;html=1;" edge="1" parent="WIyWlLk6GJQsqaUBKTNV-1" source="bgo5e_Lx12IVAWtBBwC9-24" target="bgo5e_Lx12IVAWtBBwC9-26">
          <mxGeometry relative="1" as="geometry" />
        </mxCell>
        <mxCell id="bgo5e_Lx12IVAWtBBwC9-24" value="Set choose right template file" style="rounded=1;whiteSpace=wrap;html=1;" vertex="1" parent="WIyWlLk6GJQsqaUBKTNV-1">
          <mxGeometry x="60" y="480" width="120" height="60" as="geometry" />
        </mxCell>
        <mxCell id="bgo5e_Lx12IVAWtBBwC9-31" value="" style="edgeStyle=orthogonalEdgeStyle;rounded=0;orthogonalLoop=1;jettySize=auto;html=1;" edge="1" parent="WIyWlLk6GJQsqaUBKTNV-1" source="bgo5e_Lx12IVAWtBBwC9-26" target="bgo5e_Lx12IVAWtBBwC9-30">
          <mxGeometry relative="1" as="geometry" />
        </mxCell>
        <mxCell id="bgo5e_Lx12IVAWtBBwC9-26" value="Use template file" style="rounded=1;whiteSpace=wrap;html=1;" vertex="1" parent="WIyWlLk6GJQsqaUBKTNV-1">
          <mxGeometry x="60" y="620" width="120" height="60" as="geometry" />
        </mxCell>
        <mxCell id="bgo5e_Lx12IVAWtBBwC9-30" value="Output file" style="rounded=1;whiteSpace=wrap;html=1;" vertex="1" parent="WIyWlLk6GJQsqaUBKTNV-1">
          <mxGeometry x="60" y="760" width="120" height="60" as="geometry" />
        </mxCell>
      </root>
    </mxGraphModel>
  </diagram>
</mxfile>
